%TF.GenerationSoftware,KiCad,Pcbnew,10.0.2-rc1*%
%TF.CreationDate,2026-05-05T10:49:54+07:00*%
%TF.ProjectId,warehouse_rfid_controller,77617265-686f-4757-9365-5f726669645f,rev?*%
%TF.SameCoordinates,Original*%
%TF.FileFunction,Legend,Top*%
%TF.FilePolarity,Positive*%
%FSLAX46Y46*%
G04 Gerber Fmt 4.6, Leading zero omitted, Abs format (unit mm)*
G04 Created by KiCad (PCBNEW 10.0.2-rc1) date 2026-05-05 10:49:54*
%MOMM*%
%LPD*%
G01*
G04 APERTURE LIST*
%ADD10C,0.150000*%
%ADD11C,0.100000*%
%ADD12C,0.120000*%
G04 APERTURE END LIST*
D10*
X113683433Y-81039580D02*
X113635814Y-81087200D01*
X113635814Y-81087200D02*
X113492957Y-81134819D01*
X113492957Y-81134819D02*
X113397719Y-81134819D01*
X113397719Y-81134819D02*
X113254862Y-81087200D01*
X113254862Y-81087200D02*
X113159624Y-80991961D01*
X113159624Y-80991961D02*
X113112005Y-80896723D01*
X113112005Y-80896723D02*
X113064386Y-80706247D01*
X113064386Y-80706247D02*
X113064386Y-80563390D01*
X113064386Y-80563390D02*
X113112005Y-80372914D01*
X113112005Y-80372914D02*
X113159624Y-80277676D01*
X113159624Y-80277676D02*
X113254862Y-80182438D01*
X113254862Y-80182438D02*
X113397719Y-80134819D01*
X113397719Y-80134819D02*
X113492957Y-80134819D01*
X113492957Y-80134819D02*
X113635814Y-80182438D01*
X113635814Y-80182438D02*
X113683433Y-80230057D01*
X114635814Y-81134819D02*
X114064386Y-81134819D01*
X114350100Y-81134819D02*
X114350100Y-80134819D01*
X114350100Y-80134819D02*
X114254862Y-80277676D01*
X114254862Y-80277676D02*
X114159624Y-80372914D01*
X114159624Y-80372914D02*
X114064386Y-80420533D01*
X114696666Y-57874819D02*
X114696666Y-58589104D01*
X114696666Y-58589104D02*
X114649047Y-58731961D01*
X114649047Y-58731961D02*
X114553809Y-58827200D01*
X114553809Y-58827200D02*
X114410952Y-58874819D01*
X114410952Y-58874819D02*
X114315714Y-58874819D01*
X115077619Y-57874819D02*
X115696666Y-57874819D01*
X115696666Y-57874819D02*
X115363333Y-58255771D01*
X115363333Y-58255771D02*
X115506190Y-58255771D01*
X115506190Y-58255771D02*
X115601428Y-58303390D01*
X115601428Y-58303390D02*
X115649047Y-58351009D01*
X115649047Y-58351009D02*
X115696666Y-58446247D01*
X115696666Y-58446247D02*
X115696666Y-58684342D01*
X115696666Y-58684342D02*
X115649047Y-58779580D01*
X115649047Y-58779580D02*
X115601428Y-58827200D01*
X115601428Y-58827200D02*
X115506190Y-58874819D01*
X115506190Y-58874819D02*
X115220476Y-58874819D01*
X115220476Y-58874819D02*
X115125238Y-58827200D01*
X115125238Y-58827200D02*
X115077619Y-58779580D01*
X116489819Y-71286666D02*
X116013628Y-71619999D01*
X116489819Y-71858094D02*
X115489819Y-71858094D01*
X115489819Y-71858094D02*
X115489819Y-71477142D01*
X115489819Y-71477142D02*
X115537438Y-71381904D01*
X115537438Y-71381904D02*
X115585057Y-71334285D01*
X115585057Y-71334285D02*
X115680295Y-71286666D01*
X115680295Y-71286666D02*
X115823152Y-71286666D01*
X115823152Y-71286666D02*
X115918390Y-71334285D01*
X115918390Y-71334285D02*
X115966009Y-71381904D01*
X115966009Y-71381904D02*
X116013628Y-71477142D01*
X116013628Y-71477142D02*
X116013628Y-71858094D01*
X116489819Y-70334285D02*
X116489819Y-70905713D01*
X116489819Y-70619999D02*
X115489819Y-70619999D01*
X115489819Y-70619999D02*
X115632676Y-70715237D01*
X115632676Y-70715237D02*
X115727914Y-70810475D01*
X115727914Y-70810475D02*
X115775533Y-70905713D01*
X130436666Y-81154819D02*
X130436666Y-81869104D01*
X130436666Y-81869104D02*
X130389047Y-82011961D01*
X130389047Y-82011961D02*
X130293809Y-82107200D01*
X130293809Y-82107200D02*
X130150952Y-82154819D01*
X130150952Y-82154819D02*
X130055714Y-82154819D01*
X131341428Y-81488152D02*
X131341428Y-82154819D01*
X131103333Y-81107200D02*
X130865238Y-81821485D01*
X130865238Y-81821485D02*
X131484285Y-81821485D01*
X66341666Y-107807319D02*
X66341666Y-108521604D01*
X66341666Y-108521604D02*
X66294047Y-108664461D01*
X66294047Y-108664461D02*
X66198809Y-108759700D01*
X66198809Y-108759700D02*
X66055952Y-108807319D01*
X66055952Y-108807319D02*
X65960714Y-108807319D01*
X67246428Y-107807319D02*
X67055952Y-107807319D01*
X67055952Y-107807319D02*
X66960714Y-107854938D01*
X66960714Y-107854938D02*
X66913095Y-107902557D01*
X66913095Y-107902557D02*
X66817857Y-108045414D01*
X66817857Y-108045414D02*
X66770238Y-108235890D01*
X66770238Y-108235890D02*
X66770238Y-108616842D01*
X66770238Y-108616842D02*
X66817857Y-108712080D01*
X66817857Y-108712080D02*
X66865476Y-108759700D01*
X66865476Y-108759700D02*
X66960714Y-108807319D01*
X66960714Y-108807319D02*
X67151190Y-108807319D01*
X67151190Y-108807319D02*
X67246428Y-108759700D01*
X67246428Y-108759700D02*
X67294047Y-108712080D01*
X67294047Y-108712080D02*
X67341666Y-108616842D01*
X67341666Y-108616842D02*
X67341666Y-108378747D01*
X67341666Y-108378747D02*
X67294047Y-108283509D01*
X67294047Y-108283509D02*
X67246428Y-108235890D01*
X67246428Y-108235890D02*
X67151190Y-108188271D01*
X67151190Y-108188271D02*
X66960714Y-108188271D01*
X66960714Y-108188271D02*
X66865476Y-108235890D01*
X66865476Y-108235890D02*
X66817857Y-108283509D01*
X66817857Y-108283509D02*
X66770238Y-108378747D01*
X107791666Y-94379819D02*
X107791666Y-95094104D01*
X107791666Y-95094104D02*
X107744047Y-95236961D01*
X107744047Y-95236961D02*
X107648809Y-95332200D01*
X107648809Y-95332200D02*
X107505952Y-95379819D01*
X107505952Y-95379819D02*
X107410714Y-95379819D01*
X108220238Y-94475057D02*
X108267857Y-94427438D01*
X108267857Y-94427438D02*
X108363095Y-94379819D01*
X108363095Y-94379819D02*
X108601190Y-94379819D01*
X108601190Y-94379819D02*
X108696428Y-94427438D01*
X108696428Y-94427438D02*
X108744047Y-94475057D01*
X108744047Y-94475057D02*
X108791666Y-94570295D01*
X108791666Y-94570295D02*
X108791666Y-94665533D01*
X108791666Y-94665533D02*
X108744047Y-94808390D01*
X108744047Y-94808390D02*
X108172619Y-95379819D01*
X108172619Y-95379819D02*
X108791666Y-95379819D01*
X124364761Y-67610057D02*
X124269523Y-67562438D01*
X124269523Y-67562438D02*
X124174285Y-67467200D01*
X124174285Y-67467200D02*
X124031428Y-67324342D01*
X124031428Y-67324342D02*
X123936190Y-67276723D01*
X123936190Y-67276723D02*
X123840952Y-67276723D01*
X123888571Y-67514819D02*
X123793333Y-67467200D01*
X123793333Y-67467200D02*
X123698095Y-67371961D01*
X123698095Y-67371961D02*
X123650476Y-67181485D01*
X123650476Y-67181485D02*
X123650476Y-66848152D01*
X123650476Y-66848152D02*
X123698095Y-66657676D01*
X123698095Y-66657676D02*
X123793333Y-66562438D01*
X123793333Y-66562438D02*
X123888571Y-66514819D01*
X123888571Y-66514819D02*
X124079047Y-66514819D01*
X124079047Y-66514819D02*
X124174285Y-66562438D01*
X124174285Y-66562438D02*
X124269523Y-66657676D01*
X124269523Y-66657676D02*
X124317142Y-66848152D01*
X124317142Y-66848152D02*
X124317142Y-67181485D01*
X124317142Y-67181485D02*
X124269523Y-67371961D01*
X124269523Y-67371961D02*
X124174285Y-67467200D01*
X124174285Y-67467200D02*
X124079047Y-67514819D01*
X124079047Y-67514819D02*
X123888571Y-67514819D01*
X125269523Y-67514819D02*
X124698095Y-67514819D01*
X124983809Y-67514819D02*
X124983809Y-66514819D01*
X124983809Y-66514819D02*
X124888571Y-66657676D01*
X124888571Y-66657676D02*
X124793333Y-66752914D01*
X124793333Y-66752914D02*
X124698095Y-66800533D01*
X140151666Y-73104819D02*
X140151666Y-73819104D01*
X140151666Y-73819104D02*
X140104047Y-73961961D01*
X140104047Y-73961961D02*
X140008809Y-74057200D01*
X140008809Y-74057200D02*
X139865952Y-74104819D01*
X139865952Y-74104819D02*
X139770714Y-74104819D01*
X141104047Y-73104819D02*
X140627857Y-73104819D01*
X140627857Y-73104819D02*
X140580238Y-73581009D01*
X140580238Y-73581009D02*
X140627857Y-73533390D01*
X140627857Y-73533390D02*
X140723095Y-73485771D01*
X140723095Y-73485771D02*
X140961190Y-73485771D01*
X140961190Y-73485771D02*
X141056428Y-73533390D01*
X141056428Y-73533390D02*
X141104047Y-73581009D01*
X141104047Y-73581009D02*
X141151666Y-73676247D01*
X141151666Y-73676247D02*
X141151666Y-73914342D01*
X141151666Y-73914342D02*
X141104047Y-74009580D01*
X141104047Y-74009580D02*
X141056428Y-74057200D01*
X141056428Y-74057200D02*
X140961190Y-74104819D01*
X140961190Y-74104819D02*
X140723095Y-74104819D01*
X140723095Y-74104819D02*
X140627857Y-74057200D01*
X140627857Y-74057200D02*
X140580238Y-74009580D01*
D11*
X53007580Y-71823884D02*
X52198057Y-71823884D01*
X52198057Y-71823884D02*
X52102819Y-71871503D01*
X52102819Y-71871503D02*
X52055200Y-71919122D01*
X52055200Y-71919122D02*
X52007580Y-72014360D01*
X52007580Y-72014360D02*
X52007580Y-72204836D01*
X52007580Y-72204836D02*
X52055200Y-72300074D01*
X52055200Y-72300074D02*
X52102819Y-72347693D01*
X52102819Y-72347693D02*
X52198057Y-72395312D01*
X52198057Y-72395312D02*
X53007580Y-72395312D01*
X52055200Y-72823884D02*
X52007580Y-72966741D01*
X52007580Y-72966741D02*
X52007580Y-73204836D01*
X52007580Y-73204836D02*
X52055200Y-73300074D01*
X52055200Y-73300074D02*
X52102819Y-73347693D01*
X52102819Y-73347693D02*
X52198057Y-73395312D01*
X52198057Y-73395312D02*
X52293295Y-73395312D01*
X52293295Y-73395312D02*
X52388533Y-73347693D01*
X52388533Y-73347693D02*
X52436152Y-73300074D01*
X52436152Y-73300074D02*
X52483771Y-73204836D01*
X52483771Y-73204836D02*
X52531390Y-73014360D01*
X52531390Y-73014360D02*
X52579009Y-72919122D01*
X52579009Y-72919122D02*
X52626628Y-72871503D01*
X52626628Y-72871503D02*
X52721866Y-72823884D01*
X52721866Y-72823884D02*
X52817104Y-72823884D01*
X52817104Y-72823884D02*
X52912342Y-72871503D01*
X52912342Y-72871503D02*
X52959961Y-72919122D01*
X52959961Y-72919122D02*
X53007580Y-73014360D01*
X53007580Y-73014360D02*
X53007580Y-73252455D01*
X53007580Y-73252455D02*
X52959961Y-73395312D01*
X52531390Y-74157217D02*
X52483771Y-74300074D01*
X52483771Y-74300074D02*
X52436152Y-74347693D01*
X52436152Y-74347693D02*
X52340914Y-74395312D01*
X52340914Y-74395312D02*
X52198057Y-74395312D01*
X52198057Y-74395312D02*
X52102819Y-74347693D01*
X52102819Y-74347693D02*
X52055200Y-74300074D01*
X52055200Y-74300074D02*
X52007580Y-74204836D01*
X52007580Y-74204836D02*
X52007580Y-73823884D01*
X52007580Y-73823884D02*
X53007580Y-73823884D01*
X53007580Y-73823884D02*
X53007580Y-74157217D01*
X53007580Y-74157217D02*
X52959961Y-74252455D01*
X52959961Y-74252455D02*
X52912342Y-74300074D01*
X52912342Y-74300074D02*
X52817104Y-74347693D01*
X52817104Y-74347693D02*
X52721866Y-74347693D01*
X52721866Y-74347693D02*
X52626628Y-74300074D01*
X52626628Y-74300074D02*
X52579009Y-74252455D01*
X52579009Y-74252455D02*
X52531390Y-74157217D01*
X52531390Y-74157217D02*
X52531390Y-73823884D01*
X52055200Y-75538170D02*
X52007580Y-75681027D01*
X52007580Y-75681027D02*
X52007580Y-75919122D01*
X52007580Y-75919122D02*
X52055200Y-76014360D01*
X52055200Y-76014360D02*
X52102819Y-76061979D01*
X52102819Y-76061979D02*
X52198057Y-76109598D01*
X52198057Y-76109598D02*
X52293295Y-76109598D01*
X52293295Y-76109598D02*
X52388533Y-76061979D01*
X52388533Y-76061979D02*
X52436152Y-76014360D01*
X52436152Y-76014360D02*
X52483771Y-75919122D01*
X52483771Y-75919122D02*
X52531390Y-75728646D01*
X52531390Y-75728646D02*
X52579009Y-75633408D01*
X52579009Y-75633408D02*
X52626628Y-75585789D01*
X52626628Y-75585789D02*
X52721866Y-75538170D01*
X52721866Y-75538170D02*
X52817104Y-75538170D01*
X52817104Y-75538170D02*
X52912342Y-75585789D01*
X52912342Y-75585789D02*
X52959961Y-75633408D01*
X52959961Y-75633408D02*
X53007580Y-75728646D01*
X53007580Y-75728646D02*
X53007580Y-75966741D01*
X53007580Y-75966741D02*
X52959961Y-76109598D01*
X52007580Y-76538170D02*
X53007580Y-76538170D01*
X52007580Y-77014360D02*
X53007580Y-77014360D01*
X53007580Y-77014360D02*
X53007580Y-77252455D01*
X53007580Y-77252455D02*
X52959961Y-77395312D01*
X52959961Y-77395312D02*
X52864723Y-77490550D01*
X52864723Y-77490550D02*
X52769485Y-77538169D01*
X52769485Y-77538169D02*
X52579009Y-77585788D01*
X52579009Y-77585788D02*
X52436152Y-77585788D01*
X52436152Y-77585788D02*
X52245676Y-77538169D01*
X52245676Y-77538169D02*
X52150438Y-77490550D01*
X52150438Y-77490550D02*
X52055200Y-77395312D01*
X52055200Y-77395312D02*
X52007580Y-77252455D01*
X52007580Y-77252455D02*
X52007580Y-77014360D01*
X52531390Y-78014360D02*
X52531390Y-78347693D01*
X52007580Y-78490550D02*
X52007580Y-78014360D01*
X52007580Y-78014360D02*
X53007580Y-78014360D01*
X53007580Y-78014360D02*
X53007580Y-78490550D01*
X63578295Y-82051265D02*
X63578295Y-82527455D01*
X63292580Y-81956027D02*
X64292580Y-82289360D01*
X64292580Y-82289360D02*
X63292580Y-82622693D01*
X63292580Y-82956027D02*
X64292580Y-82956027D01*
X64292580Y-82956027D02*
X63292580Y-83527455D01*
X63292580Y-83527455D02*
X64292580Y-83527455D01*
X64292580Y-83860789D02*
X64292580Y-84432217D01*
X63292580Y-84146503D02*
X64292580Y-84146503D01*
X63816390Y-84765551D02*
X63816390Y-85098884D01*
X63292580Y-85241741D02*
X63292580Y-84765551D01*
X63292580Y-84765551D02*
X64292580Y-84765551D01*
X64292580Y-84765551D02*
X64292580Y-85241741D01*
X63292580Y-85670313D02*
X64292580Y-85670313D01*
X64292580Y-85670313D02*
X63292580Y-86241741D01*
X63292580Y-86241741D02*
X64292580Y-86241741D01*
X63292580Y-86717932D02*
X64292580Y-86717932D01*
X64292580Y-86717932D02*
X63292580Y-87289360D01*
X63292580Y-87289360D02*
X64292580Y-87289360D01*
X63578295Y-87717932D02*
X63578295Y-88194122D01*
X63292580Y-87622694D02*
X64292580Y-87956027D01*
X64292580Y-87956027D02*
X63292580Y-88289360D01*
X63340200Y-89336980D02*
X63292580Y-89479837D01*
X63292580Y-89479837D02*
X63292580Y-89717932D01*
X63292580Y-89717932D02*
X63340200Y-89813170D01*
X63340200Y-89813170D02*
X63387819Y-89860789D01*
X63387819Y-89860789D02*
X63483057Y-89908408D01*
X63483057Y-89908408D02*
X63578295Y-89908408D01*
X63578295Y-89908408D02*
X63673533Y-89860789D01*
X63673533Y-89860789D02*
X63721152Y-89813170D01*
X63721152Y-89813170D02*
X63768771Y-89717932D01*
X63768771Y-89717932D02*
X63816390Y-89527456D01*
X63816390Y-89527456D02*
X63864009Y-89432218D01*
X63864009Y-89432218D02*
X63911628Y-89384599D01*
X63911628Y-89384599D02*
X64006866Y-89336980D01*
X64006866Y-89336980D02*
X64102104Y-89336980D01*
X64102104Y-89336980D02*
X64197342Y-89384599D01*
X64197342Y-89384599D02*
X64244961Y-89432218D01*
X64244961Y-89432218D02*
X64292580Y-89527456D01*
X64292580Y-89527456D02*
X64292580Y-89765551D01*
X64292580Y-89765551D02*
X64244961Y-89908408D01*
X63292580Y-90336980D02*
X64292580Y-90336980D01*
X63292580Y-90813170D02*
X64292580Y-90813170D01*
X64292580Y-90813170D02*
X64292580Y-91051265D01*
X64292580Y-91051265D02*
X64244961Y-91194122D01*
X64244961Y-91194122D02*
X64149723Y-91289360D01*
X64149723Y-91289360D02*
X64054485Y-91336979D01*
X64054485Y-91336979D02*
X63864009Y-91384598D01*
X63864009Y-91384598D02*
X63721152Y-91384598D01*
X63721152Y-91384598D02*
X63530676Y-91336979D01*
X63530676Y-91336979D02*
X63435438Y-91289360D01*
X63435438Y-91289360D02*
X63340200Y-91194122D01*
X63340200Y-91194122D02*
X63292580Y-91051265D01*
X63292580Y-91051265D02*
X63292580Y-90813170D01*
X63816390Y-91813170D02*
X63816390Y-92146503D01*
X63292580Y-92289360D02*
X63292580Y-91813170D01*
X63292580Y-91813170D02*
X64292580Y-91813170D01*
X64292580Y-91813170D02*
X64292580Y-92289360D01*
%TO.C,C1*%
D12*
X111045325Y-82955000D02*
X111545325Y-82955000D01*
X111295325Y-82705000D02*
X111295325Y-83205000D01*
X113850100Y-81850000D02*
X113850100Y-83390000D01*
X113850100Y-85470000D02*
X113850100Y-87010000D01*
X113890100Y-81850000D02*
X113890100Y-83390000D01*
X113890100Y-85470000D02*
X113890100Y-87010000D01*
X113930100Y-81851000D02*
X113930100Y-83390000D01*
X113930100Y-85470000D02*
X113930100Y-87009000D01*
X113970100Y-81853000D02*
X113970100Y-83390000D01*
X113970100Y-85470000D02*
X113970100Y-87007000D01*
X114010100Y-81855000D02*
X114010100Y-83390000D01*
X114010100Y-85470000D02*
X114010100Y-87005000D01*
X114050100Y-81858000D02*
X114050100Y-83390000D01*
X114050100Y-85470000D02*
X114050100Y-87002000D01*
X114090100Y-81861000D02*
X114090100Y-83390000D01*
X114090100Y-85470000D02*
X114090100Y-86999000D01*
X114130100Y-81865000D02*
X114130100Y-83390000D01*
X114130100Y-85470000D02*
X114130100Y-86995000D01*
X114170100Y-81870000D02*
X114170100Y-83390000D01*
X114170100Y-85470000D02*
X114170100Y-86990000D01*
X114210100Y-81875000D02*
X114210100Y-83390000D01*
X114210100Y-85470000D02*
X114210100Y-86985000D01*
X114250100Y-81881000D02*
X114250100Y-83390000D01*
X114250100Y-85470000D02*
X114250100Y-86979000D01*
X114290100Y-81887000D02*
X114290100Y-83390000D01*
X114290100Y-85470000D02*
X114290100Y-86973000D01*
X114330100Y-81894000D02*
X114330100Y-83390000D01*
X114330100Y-85470000D02*
X114330100Y-86966000D01*
X114370100Y-81902000D02*
X114370100Y-83390000D01*
X114370100Y-85470000D02*
X114370100Y-86958000D01*
X114410100Y-81911000D02*
X114410100Y-83390000D01*
X114410100Y-85470000D02*
X114410100Y-86949000D01*
X114450100Y-81920000D02*
X114450100Y-83390000D01*
X114450100Y-85470000D02*
X114450100Y-86940000D01*
X114490100Y-81929000D02*
X114490100Y-83390000D01*
X114490100Y-85470000D02*
X114490100Y-86931000D01*
X114530100Y-81940000D02*
X114530100Y-83390000D01*
X114530100Y-85470000D02*
X114530100Y-86920000D01*
X114570100Y-81951000D02*
X114570100Y-83390000D01*
X114570100Y-85470000D02*
X114570100Y-86909000D01*
X114610100Y-81963000D02*
X114610100Y-83390000D01*
X114610100Y-85470000D02*
X114610100Y-86897000D01*
X114650100Y-81975000D02*
X114650100Y-83390000D01*
X114650100Y-85470000D02*
X114650100Y-86885000D01*
X114690100Y-81988000D02*
X114690100Y-83390000D01*
X114690100Y-85470000D02*
X114690100Y-86872000D01*
X114730100Y-82002000D02*
X114730100Y-83390000D01*
X114730100Y-85470000D02*
X114730100Y-86858000D01*
X114770100Y-82017000D02*
X114770100Y-83390000D01*
X114770100Y-85470000D02*
X114770100Y-86843000D01*
X114810100Y-82032000D02*
X114810100Y-83390000D01*
X114810100Y-85470000D02*
X114810100Y-86828000D01*
X114850100Y-82048000D02*
X114850100Y-83390000D01*
X114850100Y-85470000D02*
X114850100Y-86812000D01*
X114890100Y-82065000D02*
X114890100Y-83390000D01*
X114890100Y-85470000D02*
X114890100Y-86795000D01*
X114930100Y-82083000D02*
X114930100Y-83390000D01*
X114930100Y-85470000D02*
X114930100Y-86777000D01*
X114970100Y-82101000D02*
X114970100Y-83390000D01*
X114970100Y-85470000D02*
X114970100Y-86759000D01*
X115010100Y-82121000D02*
X115010100Y-83390000D01*
X115010100Y-85470000D02*
X115010100Y-86739000D01*
X115050100Y-82141000D02*
X115050100Y-83390000D01*
X115050100Y-85470000D02*
X115050100Y-86719000D01*
X115090100Y-82162000D02*
X115090100Y-83390000D01*
X115090100Y-85470000D02*
X115090100Y-86698000D01*
X115130100Y-82184000D02*
X115130100Y-83390000D01*
X115130100Y-85470000D02*
X115130100Y-86676000D01*
X115170100Y-82207000D02*
X115170100Y-83390000D01*
X115170100Y-85470000D02*
X115170100Y-86653000D01*
X115210100Y-82231000D02*
X115210100Y-83390000D01*
X115210100Y-85470000D02*
X115210100Y-86629000D01*
X115250100Y-82255000D02*
X115250100Y-83390000D01*
X115250100Y-85470000D02*
X115250100Y-86605000D01*
X115290100Y-82281000D02*
X115290100Y-83390000D01*
X115290100Y-85470000D02*
X115290100Y-86579000D01*
X115330100Y-82308000D02*
X115330100Y-83390000D01*
X115330100Y-85470000D02*
X115330100Y-86552000D01*
X115370100Y-82336000D02*
X115370100Y-83390000D01*
X115370100Y-85470000D02*
X115370100Y-86524000D01*
X115410100Y-82365000D02*
X115410100Y-83390000D01*
X115410100Y-85470000D02*
X115410100Y-86495000D01*
X115450100Y-82395000D02*
X115450100Y-83390000D01*
X115450100Y-85470000D02*
X115450100Y-86465000D01*
X115490100Y-82427000D02*
X115490100Y-83390000D01*
X115490100Y-85470000D02*
X115490100Y-86433000D01*
X115530100Y-82460000D02*
X115530100Y-83390000D01*
X115530100Y-85470000D02*
X115530100Y-86400000D01*
X115570100Y-82494000D02*
X115570100Y-83390000D01*
X115570100Y-85470000D02*
X115570100Y-86366000D01*
X115610100Y-82529000D02*
X115610100Y-83390000D01*
X115610100Y-85470000D02*
X115610100Y-86331000D01*
X115650100Y-82566000D02*
X115650100Y-83390000D01*
X115650100Y-85470000D02*
X115650100Y-86294000D01*
X115690100Y-82605000D02*
X115690100Y-83390000D01*
X115690100Y-85470000D02*
X115690100Y-86255000D01*
X115730100Y-82645000D02*
X115730100Y-83390000D01*
X115730100Y-85470000D02*
X115730100Y-86215000D01*
X115770100Y-82687000D02*
X115770100Y-83390000D01*
X115770100Y-85470000D02*
X115770100Y-86173000D01*
X115810100Y-82731000D02*
X115810100Y-83390000D01*
X115810100Y-85470000D02*
X115810100Y-86129000D01*
X115850100Y-82778000D02*
X115850100Y-83390000D01*
X115850100Y-85470000D02*
X115850100Y-86082000D01*
X115890100Y-82826000D02*
X115890100Y-86034000D01*
X115930100Y-82877000D02*
X115930100Y-85983000D01*
X115970100Y-82931000D02*
X115970100Y-85929000D01*
X116010100Y-82987000D02*
X116010100Y-85873000D01*
X116050100Y-83047000D02*
X116050100Y-85813000D01*
X116090100Y-83111000D02*
X116090100Y-85749000D01*
X116130100Y-83179000D02*
X116130100Y-85681000D01*
X116170100Y-83253000D02*
X116170100Y-85607000D01*
X116210100Y-83332000D02*
X116210100Y-85528000D01*
X116250100Y-83419000D02*
X116250100Y-85441000D01*
X116290100Y-83516000D02*
X116290100Y-85344000D01*
X116330100Y-83625000D02*
X116330100Y-85235000D01*
X116370100Y-83753000D02*
X116370100Y-85107000D01*
X116410100Y-83913000D02*
X116410100Y-84947000D01*
X116450100Y-84147000D02*
X116450100Y-84713000D01*
X116470100Y-84430000D02*
G75*
G02*
X111230100Y-84430000I-2620000J0D01*
G01*
X111230100Y-84430000D02*
G75*
G02*
X116470100Y-84430000I2620000J0D01*
G01*
%TO.C,J3*%
X106570000Y-59580000D02*
X106570000Y-62340000D01*
X114300000Y-59580000D02*
X106570000Y-59580000D01*
X114300000Y-59580000D02*
X114300000Y-62340000D01*
X114300000Y-62340000D02*
X106570000Y-62340000D01*
X115570000Y-59580000D02*
X116950000Y-59580000D01*
X116950000Y-59580000D02*
X116950000Y-60960000D01*
%TO.C,R1*%
X112295000Y-67850000D02*
X112295000Y-74390000D01*
X112295000Y-74390000D02*
X112625000Y-74390000D01*
X112625000Y-67850000D02*
X112295000Y-67850000D01*
X114705000Y-67850000D02*
X115035000Y-67850000D01*
X115035000Y-67850000D02*
X115035000Y-74390000D01*
X115035000Y-74390000D02*
X114705000Y-74390000D01*
%TO.C,J4*%
X121810000Y-83240000D02*
X121810000Y-86000000D01*
X127000000Y-83240000D02*
X121810000Y-83240000D01*
X127000000Y-83240000D02*
X127000000Y-86000000D01*
X127000000Y-86000000D02*
X121810000Y-86000000D01*
X128270000Y-83240000D02*
X129650000Y-83240000D01*
X129650000Y-83240000D02*
X129650000Y-84620000D01*
%TO.C,J6*%
X61475000Y-96112500D02*
X68915000Y-96112500D01*
X61475000Y-107352500D02*
X61475000Y-96112500D01*
X69515000Y-96112500D02*
X71875000Y-96112500D01*
X71875000Y-96112500D02*
X71875000Y-107352500D01*
X71875000Y-96732500D02*
X61475000Y-96732500D01*
X71875000Y-99232500D02*
X61475000Y-99232500D01*
X71875000Y-105432500D02*
X61475000Y-105432500D01*
X71875000Y-107352500D02*
X61475000Y-107352500D01*
X69215000Y-96112500D02*
X68775000Y-95502500D01*
X69655000Y-95502500D01*
X69215000Y-96112500D01*
G36*
X69215000Y-96112500D02*
G01*
X68775000Y-95502500D01*
X69655000Y-95502500D01*
X69215000Y-96112500D01*
G37*
%TO.C,J2*%
X91965000Y-97045000D02*
X91965000Y-99805000D01*
X109855000Y-97045000D02*
X91965000Y-97045000D01*
X109855000Y-97045000D02*
X109855000Y-99805000D01*
X109855000Y-99805000D02*
X91965000Y-99805000D01*
X111125000Y-97045000D02*
X112505000Y-97045000D01*
X112505000Y-97045000D02*
X112505000Y-98425000D01*
%TO.C,Q1*%
X122660000Y-72470000D02*
X126260000Y-72470000D01*
X122621522Y-72458478D02*
G75*
G02*
X124460000Y-68019999I1838478J1838478D01*
G01*
X124460000Y-68020000D02*
G75*
G02*
X126298478Y-72458478I0J-2600000D01*
G01*
%TO.C,J5*%
X132605000Y-72030000D02*
X132605000Y-70650000D01*
X133985000Y-72030000D02*
X132605000Y-72030000D01*
X135255000Y-69270000D02*
X137905000Y-69270000D01*
X135255000Y-72030000D02*
X135255000Y-69270000D01*
X135255000Y-72030000D02*
X137905000Y-72030000D01*
X137905000Y-72030000D02*
X137905000Y-69270000D01*
%TO.C,U1*%
D11*
X53340000Y-60325000D02*
X93980000Y-60325000D01*
X93980000Y-90805000D01*
X53340000Y-90805000D01*
X53340000Y-60325000D01*
%TD*%
M02*
