%TF.GenerationSoftware,KiCad,Pcbnew,10.0.2-rc1*%
%TF.CreationDate,2026-05-05T10:49:54+07:00*%
%TF.ProjectId,warehouse_rfid_controller,77617265-686f-4757-9365-5f726669645f,rev?*%
%TF.SameCoordinates,Original*%
%TF.FileFunction,Soldermask,Top*%
%TF.FilePolarity,Negative*%
%FSLAX46Y46*%
G04 Gerber Fmt 4.6, Leading zero omitted, Abs format (unit mm)*
G04 Created by KiCad (PCBNEW 10.0.2-rc1) date 2026-05-05 10:49:54*
%MOMM*%
%LPD*%
G01*
G04 APERTURE LIST*
G04 Aperture macros list*
%AMRoundRect*
0 Rectangle with rounded corners*
0 $1 Rounding radius*
0 $2 $3 $4 $5 $6 $7 $8 $9 X,Y pos of 4 corners*
0 Add a 4 corners polygon primitive as box body*
4,1,4,$2,$3,$4,$5,$6,$7,$8,$9,$2,$3,0*
0 Add four circle primitives for the rounded corners*
1,1,$1+$1,$2,$3*
1,1,$1+$1,$4,$5*
1,1,$1+$1,$6,$7*
1,1,$1+$1,$8,$9*
0 Add four rect primitives between the rounded corners*
20,1,$1+$1,$2,$3,$4,$5,0*
20,1,$1+$1,$4,$5,$6,$7,0*
20,1,$1+$1,$6,$7,$8,$9,0*
20,1,$1+$1,$8,$9,$2,$3,0*%
G04 Aperture macros list end*
%ADD10RoundRect,0.250000X-0.550000X-0.550000X0.550000X-0.550000X0.550000X0.550000X-0.550000X0.550000X0*%
%ADD11C,1.600000*%
%ADD12R,1.700000X1.700000*%
%ADD13C,1.700000*%
%ADD14RoundRect,0.250000X1.050000X1.050000X-1.050000X1.050000X-1.050000X-1.050000X1.050000X-1.050000X0*%
%ADD15C,2.600000*%
%ADD16R,1.050000X1.500000*%
%ADD17O,1.050000X1.500000*%
%ADD18O,1.800000X1.800000*%
G04 APERTURE END LIST*
D10*
%TO.C,C1*%
X112850100Y-84430000D03*
D11*
X114850100Y-84430000D03*
%TD*%
D12*
%TO.C,J3*%
X115570000Y-60960000D03*
D13*
X113030000Y-60960000D03*
X110490000Y-60960000D03*
X107950000Y-60960000D03*
%TD*%
D11*
%TO.C,R1*%
X113665000Y-67310000D03*
X113665000Y-74930000D03*
%TD*%
D12*
%TO.C,J4*%
X128270000Y-84620000D03*
D13*
X125730000Y-84620000D03*
X123190000Y-84620000D03*
%TD*%
D14*
%TO.C,J6*%
X69215000Y-101732500D03*
D15*
X64135000Y-101732500D03*
%TD*%
D12*
%TO.C,J2*%
X111125000Y-98425000D03*
D13*
X108585000Y-98425000D03*
X106045000Y-98425000D03*
X103505000Y-98425000D03*
X100965000Y-98425000D03*
X98425000Y-98425000D03*
X95885000Y-98425000D03*
X93345000Y-98425000D03*
%TD*%
D16*
%TO.C,Q1*%
X123190000Y-70620000D03*
D17*
X124460000Y-70620000D03*
X125730000Y-70620000D03*
%TD*%
D12*
%TO.C,J5*%
X133985000Y-70650000D03*
D13*
X136525000Y-70650000D03*
%TD*%
D18*
%TO.C,U1*%
X91440000Y-62865000D03*
X91440000Y-88265000D03*
X88900000Y-62865000D03*
X88900000Y-88265000D03*
X86360000Y-62865000D03*
X86360000Y-88265000D03*
X83820000Y-62865000D03*
X83820000Y-88265000D03*
X81280000Y-62865000D03*
X81280000Y-88265000D03*
X78740000Y-62865000D03*
X78740000Y-88265000D03*
X76200000Y-62865000D03*
X76200000Y-88265000D03*
X73660000Y-62865000D03*
X73660000Y-88265000D03*
X71120000Y-62865000D03*
X71120000Y-88265000D03*
X68580000Y-62865000D03*
X68580000Y-88265000D03*
X66040000Y-62865000D03*
X66040000Y-88265000D03*
X63500000Y-62865000D03*
X63500000Y-88265000D03*
X60960000Y-62865000D03*
X60960000Y-88265000D03*
X58420000Y-62865000D03*
X58420000Y-88265000D03*
X55880000Y-62865000D03*
X55880000Y-88265000D03*
%TD*%
M02*
